<mxfile host="app.diagrams.net" modified="2024-04-09T19:28:42.750Z" agent="Mozilla/5.0 (Macintosh; Intel Mac OS X 10_15_7) AppleWebKit/605.1.15 (KHTML, like Gecko) Version/17.1 Safari/605.1.15" version="24.2.3" etag="H2H_56gNnxYn0pfyhY3D" type="github">
  <diagram name="Сторінка-1" id="hTUsGMjlrR_EJmib-BwS">
    <mxGraphModel>
      <root>
        <mxCell id="0" />
        <mxCell id="1" parent="0" />
      </root>
    </mxGraphModel>
  </diagram>
</mxfile>
